<?xml version="1.0" encoding="iso-8859-1"?>
<!-- Generator: Adobe Illustrator 19.0.0, SVG Export Plug-In . SVG Version: 6.00 Build 0)  -->
<svg version="1.1" id="Capa_1" xmlns="http://www.w3.org/2000/svg" xmlns:xlink="http://www.w3.org/1999/xlink" x="0px" y="0px"
	 viewBox="0 0 512 512" style="enable-background:new 0 0 512 512;" xml:space="preserve">
<g>
	<g>
		<g>
			<polygon points="452.8,94.4 464,83.2 475.2,94.4 486.4,83.2 475.2,72 486.4,60.8 475.2,49.6 464,60.8 452.8,49.6 441.6,60.8 
				452.8,72 441.6,83.2 			"/>
			<rect x="144" y="200" width="24" height="16"/>
			<path d="M504,424h-48v-16h16c4.8,0,8-3.2,8-8V256c0-4.8-3.2-8-8-8h-32v-48h8v-16h-16h-64h-16v16h8v48h-32c-4.8,0-8,3.2-8,8v144
				c0,4.8,3.2,8,8,8h16v16h-72V256c0-4.8-3.2-8-8-8h-72v-58.4l41.6,48c1.6,1.6,3.2,2.4,5.6,2.4s4-0.8,5.6-2.4l56-56
				c1.6-1.6,2.4-3.2,2.4-5.6v-16h24c4.8,0,8-3.2,8-8s-3.2-8-8-8h-24c0-3.2-1.6-6.4-4.8-7.2c-3.2-1.6-6.4-0.8-8.8,1.6L240,188
				l-50.4-64.8c-0.8-1.6-3.2-3.2-5.6-3.2h-8V48c0-26.4-23.2-48-52-48S72,21.6,72,48v72h-8c-1.6,0-3.2,0.8-4,1.6l-24,16
				c-2.4,1.6-4,4-4,6.4v80h-8c-4.8,0-8,3.2-8,8v16H8c-4.8,0-8,3.2-8,8v208c0,4.8,3.2,8,8,8h256h240c4.8,0,8-3.2,8-8v-32
				C512,427.2,508.8,424,504,424z M192,152l41.6,53.6c1.6,0.8,4,2.4,5.6,2.4c2.4,0,4.8-0.8,6.4-2.4l42.4-42.4v9.6l-48,48l-48-55.2
				V152z M124,16c8.8,0,16.8,3.2,23.2,8l-21.6,16h-36C93.6,26.4,107.2,16,124,16z M128,56c1.6,0,3.2-0.8,4.8-1.6L157.6,36
				c1.6,4,2.4,8,2.4,12c0,18.4-17.6,48-36,48c-16,0-31.2-22.4-35.2-40H128z M160,91.2V120h-8v-20C155.2,97.6,157.6,94.4,160,91.2z
				 M144.8,136l-18.4,27.2L99.2,136H144.8z M112,120v-10.4c4,1.6,8,2.4,12,2.4s8-0.8,12-2.4V120H112z M88,91.2
				c2.4,3.2,4.8,6.4,8,8.8v20h-8V91.2z M72,136h4.8l45.6,45.6c1.6,1.6,3.2,2.4,5.6,2.4h0.8c2.4,0,4.8-1.6,5.6-3.2L164,136h12v112H72
				V136z M48,148l8-5.6V224h-8V148z M32,240h24v8H32V240z M256,432v24H16v-16h40v-16H16v-16h24v-16H16V264h48h120h72V432z M376,200
				h48v48h-48V200z M336,392V264h128v128H336z M440,408v16h-80v-16H440z M496,456H272v-16h224V456z"/>
			<rect y="496" width="512" height="16"/>
			<rect x="360" y="288" width="16" height="80"/>
			<rect x="392" y="288" width="16" height="80"/>
			<rect x="424" y="288" width="16" height="80"/>
			<path d="M200,80h24c4.8,0,8-3.2,8-8s-3.2-8-8-8h-24c-4.8,0-8,3.2-8,8S195.2,80,200,80z"/>
			<path d="M256,56h24c4.8,0,8-3.2,8-8s-3.2-8-8-8h-24c-4.8,0-8,3.2-8,8S251.2,56,256,56z"/>
			<path d="M280,88c0,4.8,3.2,8,8,8h32c4.8,0,8-3.2,8-8V72h24v16c0,4.8,3.2,8,8,8h40c4.8,0,8-3.2,8-8s-3.2-8-8-8h-32V64
				c0-4.8-3.2-8-8-8h-40c-4.8,0-8,3.2-8,8v16h-24C283.2,80,280,83.2,280,88z"/>
		</g>
	</g>
</g>
<g>
</g>
<g>
</g>
<g>
</g>
<g>
</g>
<g>
</g>
<g>
</g>
<g>
</g>
<g>
</g>
<g>
</g>
<g>
</g>
<g>
</g>
<g>
</g>
<g>
</g>
<g>
</g>
<g>
</g>
</svg>
