<svg id="Capa_1" enable-background="new 0 0 512 512" height="512" viewBox="0 0 512 512" width="512" xmlns="http://www.w3.org/2000/svg"><path d="m496.996 337.691h-210.989v-85.797h25.992c8.284 0 15-6.716 15-15v-120.073c0-8.284-6.716-15-15-15h-25.998v-45.054c0-8.284-6.716-15-15-15h-29.994v-26.767c0-8.284-6.716-15-15-15s-15 6.716-15 15v26.767h-30.006c-8.284 0-15 6.716-15 15v45.055h-24.002c-8.284 0-15 6.716-15 15v120.072c0 8.284 6.716 15 15 15h24.008v230.095h-63.333v-77.926c0-8.284-6.716-15-15-15h-72.621c-8.284 0-15 6.716-15 15v91.882c-.024.346-.053.691-.053 1.044 0 8.284 6.716 15 15 15l481.996.011c8.284 0 15-6.716 15-15v-144.309c0-8.284-6.716-15-15-15zm-300.995-265.924h60v30.055h-60zm100.998 60.054v30h-140v-30zm-140 60h140v30.072h-140zm39.008 60.073h60v230.095h-60zm-123.333 167.169v62.926h-42.621v-62.926zm409.322 62.937-195.989-.011v-114.298h195.989z"/><path d="m411.457 451.999c8.284 0 15-6.716 15-15v-20c0-8.284-6.716-15-15-15s-15 6.716-15 15v20c0 8.284 6.716 15 15 15z"/><path d="m351.457 451.999c8.284 0 15-6.716 15-15v-20c0-8.284-6.716-15-15-15s-15 6.716-15 15v20c0 8.284 6.716 15 15 15z"/><path d="m15 165.564h57.008c8.284 0 15-6.716 15-15s-6.716-15-15-15h-57.008c-8.284 0-15 6.716-15 15 0 8.285 6.716 15 15 15z"/><path d="m408.552 59.926h88.448c8.284 0 15-6.716 15-15s-6.716-15-15-15h-88.448c-8.284 0-15 6.716-15 15s6.716 15 15 15z"/><path d="m384.007 244.059h63.755c8.284 0 15-6.716 15-15s-6.716-15-15-15h-63.755c-8.284 0-15 6.716-15 15s6.716 15 15 15z"/></svg>