<svg height="512" viewBox="0 0 192 192" width="512" xmlns="http://www.w3.org/2000/svg"><g id="_01-location" data-name="01-location"><path d="m179.578 136.845-52.87-26.435c12.641-17.666 25.292-39.157 25.292-54.41a56 56 0 0 0 -112 0c0 15.254 12.652 36.744 25.292 54.41l-52.87 26.435a8.071 8.071 0 0 0 0 14.31l80 40a8.06 8.06 0 0 0 7.156 0l80-40a8.071 8.071 0 0 0 0-14.31zm-83.578-120.845a40.045 40.045 0 0 1 40 40c0 15.252-22.53 47.071-40 67.8-17.472-20.719-40-52.53-40-67.8a40.045 40.045 0 0 1 40-40zm0 159.056-62.111-31.056 41.176-20.588c7.292 9.273 13.294 16.052 14.981 17.931a8.079 8.079 0 0 0 11.908 0c1.687-1.879 7.689-8.658 14.981-17.931l41.176 20.588z"/><path d="m120 56a24 24 0 1 0 -24 24 24.027 24.027 0 0 0 24-24zm-32 0a8 8 0 1 1 8 8 8.009 8.009 0 0 1 -8-8z"/></g></svg>